PathFileType	4	(X/Y/Z)	c:\Git\powerlifing_model_clean\simulations\HC835B\Session1\HC835B_OGW_0004\marker_experimental.trc
DataRate	CameraRate	NumFrames	NumMarkers	Units	OrigDataRate	OrigDataStartFrame	OrigNumFrames
240.000000	240.000000	4	38	mm	240.000000	214	429
Frame#	Time	RPSI			LPSI			RASI			LASI			RTH1			RTH2			RTH3			RTH4			RSK1			RSK2			RSK3			RSK4			RCAL1			RCAL2			RCAL3			RST			RPT			RTN			RFMB			RSMB			RVMB			RFMH			RSMH			RVMH			RPM			LTH1			LTH2			LTH3			LTH4			LSK1			LSK2			LSK3			LSK4			LCAL1			LCAL2			LCAL3			LFMH			LVMH			
		X1	Y1	Z1	X2	Y2	Z2	X3	Y3	Z3	X4	Y4	Z4	X5	Y5	Z5	X6	Y6	Z6	X7	Y7	Z7	X8	Y8	Z8	X9	Y9	Z9	X10	Y10	Z10	X11	Y11	Z11	X12	Y12	Z12	X13	Y13	Z13	X14	Y14	Z14	X15	Y15	Z15	X16	Y16	Z16	X17	Y17	Z17	X18	Y18	Z18	X19	Y19	Z19	X20	Y20	Z20	X21	Y21	Z21	X22	Y22	Z22	X23	Y23	Z23	X24	Y24	Z24	X25	Y25	Z25	X26	Y26	Z26	X27	Y27	Z27	X28	Y28	Z28	X29	Y29	Z29	X30	Y30	Z30	X31	Y31	Z31	X32	Y32	Z32	X33	Y33	Z33	X34	Y34	Z34	X35	Y35	Z35	X36	Y36	Z36	X37	Y37	Z37	X38	Y38	Z38	

215	0.8916666666666666	490.3913574218751	1141.229736328125	-1171.120239257813	600.5360717773439	1142.964477539063	-1165.907592773438	421.6366271972657	1112.152587890625	-966.4859008789065	662.2536010742189	1108.308227539063	-953.9668579101565	323.3897094726563	843.175476074219	-954.5474853515627	326.1537170410157	856.7903442382815	-895.4979248046877	322.8088684082032	777.601501464844	-900.8699340820315	335.8362426757813	789.0571899414065	-844.2622680664065	382.7483215332032	411.827117919922	-1037.748413085938	373.8642272949219	368.7433471679688	-994.3933105468752	389.9450683593751	354.5335998535157	-1052.092651367188	393.298797607422	314.4415588378907	-1007.238708496094	468.9641113281251	266.8957824707032	-1160.331665039063	508.3616333007814	237.6885833740235	-1166.948364257813	446.7084045410157	232.060043334961	-1186.398315429688	507.3568725585939	210.0411376953126	-1100.003173828125	411.4025878906251	202.2557067871094	-1140.173095703125	480.4155578613282	189.1019592285157	-1052.255859375	477.2929687500001	155.6982574462891	-1037.624145507813	424.173797607422	162.5581970214844	-1029.633056640625	403.542694091797	153.0150756835938	-1123.525634765625	481.5980224609376	99.06217956542972	-1013.560852050781	424.4161376953126	98.59724426269534	-1006.201965332031	378.6509399414063	94.79641723632814	-1074.335083007813	428.2556762695314	59.18131256103517	-965.2251586914065	721.3372192382814	820.4470825195315	-1042.336547851563	716.0462036132814	808.078063964844	-982.6818847656252	711.0216064453126	737.8264770507814	-1022.458435058594	689.4834594726564	727.8327636718751	-966.2586669921877	655.2473144531251	289.4458618164063	-1125.972045898438	661.1520385742189	267.7699584960938	-1077.49951171875	651.3392333984376	234.4139251708985	-1113.32373046875	641.7542724609376	215.9271850585938	-1060.230346679688	587.5200805664064	89.11828613281251	-1175.918334960938	618.1248779296876	52.19776153564455	-1175.494262695313	559.9483032226564	51.11229324340822	-1171.6474609375	560.2153320312501	62.30393218994142	-947.9464111328127	664.3171997070314	36.20529556274415	-986.5733032226565	
216	0.8958333333333334	489.9524536132814	1141.490234375	-1164.661376953125	600.2271118164064	1143.216796875	-1159.548095703125	422.1104736328126	1112.454345703125	-959.8771972656252	662.2937011718751	1108.404296875	-947.968200683594	322.8997497558594	844.250671386719	-945.8110961914065	326.7339477539063	857.850524902344	-887.2984008789065	321.8050231933594	779.5726318359377	-891.1693115234377	336.3250122070313	790.384460449219	-835.533630371094	382.5887451171876	409.2433471679689	-1024.30078125	373.7433471679688	366.8729248046876	-979.8187255859377	389.796356201172	351.6795043945313	-1037.222045898438	393.1232910156251	312.3786621093751	-991.725524902344	468.5524291992189	261.3327941894532	-1143.909790039063	507.7302551269532	231.8972473144532	-1149.667846679688	446.2272033691407	225.9465942382813	-1169.206298828125	506.8748474121095	205.9701385498047	-1082.298950195313	411.0229492187501	197.4834442138672	-1122.285400390625	480.1703186035157	186.3477630615235	-1034.1015625	476.833953857422	153.23583984375	-1018.657531738281	423.735076904297	160.4991912841797	-1010.586791992188	403.0482177734376	148.6280975341797	-1104.2041015625	480.9973754882814	97.3017501831055	-992.967224121094	423.7598876953126	97.168327331543	-985.5593872070315	377.8680114746094	91.62053680419923	-1053.585083007813	427.5690002441407	58.80379867553712	-943.601501464844	721.0082397460939	820.7637329101565	-1038.3857421875	715.5584106445314	807.888610839844	-978.8992919921877	710.5370483398439	737.9440917968751	-1019.323425292969	688.8222045898439	727.5680541992189	-963.2471923828127	655.0291137695314	289.8088073730469	-1125.408447265625	660.9299316406251	268.0137634277344	-1076.964111328125	651.1765747070314	234.7513580322266	-1112.745727539063	641.5219116210939	216.1322784423829	-1059.7890625	587.2955322265626	89.34346008300783	-1175.781494140625	617.9603881835939	52.44989013671876	-1175.362915039063	559.7857666015626	51.18125534057619	-1171.502197265625	560.2333374023439	62.26357269287111	-947.7655029296877	664.3040161132814	36.22578048706055	-986.5440063476565	
217	0.9	489.5205383300782	1141.724487304688	-1158.2138671875	599.9973144531251	1143.73974609375	-1153.6591796875	422.5538330078126	1112.863159179688	-952.991394042969	662.3340454101564	1108.460571289063	-941.9656372070315	322.6007995605469	845.0800781250002	-937.2275390625002	326.8609619140626	859.275573730469	-878.7631835937502	321.8999633789063	780.9100341796877	-882.1623535156252	336.7759399414063	792.0623779296877	-826.627624511719	382.4288940429688	406.6162719726564	-1010.519470214844	373.6541442871094	365.0500793457032	-965.2991333007815	389.6806030273439	348.8708190917969	-1022.114624023438	392.8240661621095	310.5672607421876	-976.0983886718752	468.5658569335939	256.0751037597657	-1128.320556640625	507.2152709960939	225.9802703857422	-1132.306518554688	445.6602172851564	219.9450378417969	-1151.558227539063	506.3290100097657	201.7281951904297	-1064.470336914063	410.5476074218751	192.4107360839844	-1104.307861328125	479.9747924804689	184.0214233398438	-1015.10986328125	476.2274780273439	150.8162841796875	-999.3992309570315	423.166229248047	158.6609191894532	-991.1479492187502	402.3385620117189	144.3787841796875	-1084.605834960938	480.2820739746095	95.54969024658205	-972.3078613281252	423.1385498046876	95.70106506347658	-965.0173950195315	377.0412902832032	88.67491149902345	-1032.500732421875	426.7883911132814	58.38692855834962	-922.0513916015627	720.7012939453126	821.1062622070315	-1034.418579101563	715.0261230468751	807.6967773437502	-975.0241699218752	710.0906982421876	738.1560058593751	-1016.082885742188	688.1221313476564	727.2080078125001	-960.2241821289065	654.9046020507814	290.1621093750001	-1124.778930664063	660.7184448242189	268.3111267089844	-1076.355712890625	650.9733886718751	235.0951385498047	-1112.226196289063	641.3319702148439	216.369613647461	-1059.229370117188	587.0884399414064	89.54666137695314	-1175.62939453125	617.7916259765626	52.6906204223633	-1175.310546875	559.6359863281251	51.36769485473634	-1171.408447265625	560.1700439453126	62.13554763793947	-947.3928222656252	664.3024902343751	36.22789764404298	-986.5381469726565	
218	0.9041666666666667	489.2335815429689	1141.96142578125	-1151.461181640625	599.6477661132814	1143.773193359375	-1147.242797851563	423.0479431152345	1113.174072265625	-946.0775146484377	662.3813476562501	1108.379760742188	-935.880554199219	322.4043884277344	845.8801879882815	-928.8706665039065	327.0993347167969	860.0930786132815	-870.4622192382815	322.0704345703126	781.8279418945315	-873.3640136718752	337.3569946289063	793.2548828125002	-818.1006469726565	382.2144165039063	403.5750122070314	-996.7581787109377	373.5753784179688	363.4216918945313	-950.6904907226565	389.3765563964845	345.9269104003907	-1007.21142578125	392.9261169433595	308.6552124023438	-960.4151611328127	468.073211669922	250.281723022461	-1111.406982421875	506.673065185547	220.0891723632813	-1114.979125976563	445.6972656250001	213.4667358398438	-1134.354370117188	505.4871826171876	197.2514190673829	-1047.28466796875	409.807098388672	187.8251953125	-1085.40966796875	478.745574951172	180.7074737548828	-997.3421020507815	475.6032104492189	148.2920227050782	-980.0776977539065	422.6183166503907	156.5690155029297	-971.9529418945315	401.6071166992189	139.9554595947266	-1064.975463867188	479.5749816894532	93.76844787597658	-951.6007080078127	422.3399963378907	94.16854095458986	-944.3938598632815	376.2049255371094	85.63449859619142	-1011.459411621094	426.1373291015626	58.35940170288087	-900.0967407226565	720.3079223632814	821.2886962890627	-1030.39013671875	714.4667358398439	807.4088134765627	-971.1696777343752	709.6649780273439	738.2099609375001	-1012.863159179688	687.4494018554689	726.8108520507814	-957.1409912109377	654.8342285156251	290.5317687988282	-1124.056884765625	660.4705200195314	268.4906921386719	-1075.643310546875	650.8438720703126	235.396713256836	-1111.649291992188	641.0923461914064	216.5307312011719	-1058.709716796875	586.9338989257814	89.74621582031251	-1175.45068359375	617.6331176757814	52.89916992187501	-1175.218505859375	559.3649902343751	51.17391586303712	-1171.109741210938	560.2003173828126	62.01323699951173	-947.272155761719	664.3032226562501	36.22261047363282	-986.5444335937502	
